<svg xmlns:osb="http://www.openswatchbook.org/uri/2009/osb" xmlns:dc="http://purl.org/dc/elements/1.1/" xmlns:cc="http://creativecommons.org/ns#" xmlns:rdf="http://www.w3.org/1999/02/22-rdf-syntax-ns#" xmlns:svg="http://www.w3.org/2000/svg" xmlns="http://www.w3.org/2000/svg" xmlns:sodipodi="http://sodipodi.sourceforge.net/DTD/sodipodi-0.dtd" xmlns:inkscape="http://www.inkscape.org/namespaces/inkscape" version="1.1" id="svg1467" inkscape:version="1.0.1 (3bc2e813f5, 2020-09-07)" sodipodi:docname="D&amp;D Beyond Spell School Vector Symbols.svg" viewBox="47.44 226.19 28.37 50.39">   <defs id="defs1461">     <inkscape:path-effect effect="spiro" id="path-effect2876" is_visible="true" lpeversion="1"/>     <inkscape:path-effect effect="spiro" id="path-effect2872" is_visible="true" lpeversion="1"/>     <inkscape:path-effect effect="spiro" id="path-effect2868" is_visible="true" lpeversion="1"/>     <linearGradient id="linearGradient2859" osb:paint="solid">       <stop style="stop-color:#000000;stop-opacity:1;" offset="0" id="stop2857"/>     </linearGradient>     <linearGradient id="linearGradient2853" osb:paint="solid">       <stop style="stop-color:#000000;stop-opacity:1;" offset="0" id="stop2851"/>     </linearGradient>     <inkscape:path-effect effect="spiro" id="path-effect2826" is_visible="true" lpeversion="1"/>     <inkscape:path-effect effect="spiro" id="path-effect2793" is_visible="true" lpeversion="1"/>     <inkscape:path-effect effect="spiro" id="path-effect2774" is_visible="true" lpeversion="1"/>     <inkscape:path-effect effect="spiro" id="path-effect2770" is_visible="true" lpeversion="1"/>     <inkscape:path-effect effect="spiro" id="path-effect2766" is_visible="true" lpeversion="1"/>     <inkscape:path-effect effect="spiro" id="path-effect2762" is_visible="true" lpeversion="1"/>     <inkscape:path-effect effect="spiro" id="path-effect2760" is_visible="true" lpeversion="1"/>     <inkscape:path-effect effect="spiro" id="path-effect2736" is_visible="true" lpeversion="1"/>     <inkscape:path-effect effect="spiro" id="path-effect2713" is_visible="true" lpeversion="1"/>     <inkscape:path-effect effect="spiro" id="path-effect2696" is_visible="true" lpeversion="1"/>     <inkscape:path-effect effect="spiro" id="path-effect2692" is_visible="true" lpeversion="1"/>     <inkscape:path-effect effect="spiro" id="path-effect2673" is_visible="true" lpeversion="1"/>     <inkscape:path-effect effect="spiro" id="path-effect2648" is_visible="true" lpeversion="1"/>     <inkscape:path-effect effect="spiro" id="path-effect2620" is_visible="true" lpeversion="1"/>     <inkscape:path-effect effect="spiro" id="path-effect2601" is_visible="true" lpeversion="1"/>     <inkscape:path-effect effect="skeletal" id="path-effect2597" is_visible="true" lpeversion="1" pattern="M 0,5 C 0,2.24 2.24,0 5,0 7.76,0 10,2.24 10,5 10,7.76 7.76,10 5,10 2.24,10 0,7.76 0,5 Z" copytype="single_stretched" prop_scale="1" scale_y_rel="false" spacing="0" normal_offset="0" tang_offset="0" prop_units="false" vertical_pattern="false" hide_knot="false" fuse_tolerance="0"/>     <inkscape:path-effect effect="spiro" id="path-effect2591" is_visible="true" lpeversion="1"/>     <inkscape:path-effect effect="spiro" id="path-effect2589" is_visible="true" lpeversion="1"/>     <inkscape:path-effect effect="spiro" id="path-effect2539" is_visible="true" lpeversion="1"/>     <inkscape:path-effect effect="powerstroke" id="path-effect2520" is_visible="true" lpeversion="1" offset_points="8,0.1322915" sort_points="true" interpolator_type="CubicBezierJohan" interpolator_beta="0.2" start_linecap_type="zerowidth" linejoin_type="extrp_arc" miter_limit="4" scale_width="1" end_linecap_type="zerowidth"/>     <inkscape:path-effect effect="powerstroke" id="path-effect2512" is_visible="true" lpeversion="1" offset_points="10,0.1322915" sort_points="true" interpolator_type="CubicBezierJohan" interpolator_beta="0.2" start_linecap_type="zerowidth" linejoin_type="extrp_arc" miter_limit="4" scale_width="1" end_linecap_type="zerowidth"/>     <inkscape:path-effect effect="powerstroke" id="path-effect2506" is_visible="true" lpeversion="1" offset_points="6,0.1322915" sort_points="true" interpolator_type="CubicBezierJohan" interpolator_beta="0.2" start_linecap_type="zerowidth" linejoin_type="extrp_arc" miter_limit="4" scale_width="1" end_linecap_type="zerowidth"/>     <inkscape:path-effect effect="powerstroke" id="path-effect2500" is_visible="true" lpeversion="1" offset_points="17,0.1322915" sort_points="true" interpolator_type="CubicBezierJohan" interpolator_beta="0.2" start_linecap_type="zerowidth" linejoin_type="extrp_arc" miter_limit="4" scale_width="1" end_linecap_type="zerowidth"/>     <inkscape:path-effect effect="powerstroke" id="path-effect2494" is_visible="true" lpeversion="1" offset_points="10,0.1322915" sort_points="true" interpolator_type="CubicBezierJohan" interpolator_beta="0.2" start_linecap_type="zerowidth" linejoin_type="extrp_arc" miter_limit="4" scale_width="1" end_linecap_type="zerowidth"/>     <inkscape:path-effect effect="skeletal" id="path-effect2488" is_visible="true" lpeversion="1" pattern="M 0,5 C 0,2.24 2.24,0 5,0 7.76,0 10,2.24 10,5 10,7.76 7.76,10 5,10 2.24,10 0,7.76 0,5 Z" copytype="single_stretched" prop_scale="1" scale_y_rel="false" spacing="0" normal_offset="0" tang_offset="0" prop_units="false" vertical_pattern="false" hide_knot="false" fuse_tolerance="0"/>     <inkscape:path-effect effect="skeletal" id="path-effect2482" is_visible="true" lpeversion="1" pattern="M 0,5 C 0,2.24 2.24,0 5,0 7.76,0 10,2.24 10,5 10,7.76 7.76,10 5,10 2.24,10 0,7.76 0,5 Z" copytype="single_stretched" prop_scale="1" scale_y_rel="false" spacing="0" normal_offset="0" tang_offset="0" prop_units="false" vertical_pattern="false" hide_knot="false" fuse_tolerance="0"/>     <inkscape:path-effect effect="powerstroke" id="path-effect2474" is_visible="true" lpeversion="1" offset_points="0.95986368,0.32886679" sort_points="true" interpolator_type="CentripetalCatmullRom" interpolator_beta="0.75" start_linecap_type="round" linejoin_type="spiro" miter_limit="4" scale_width="1" end_linecap_type="round"/>     <inkscape:path-effect effect="simplify" id="path-effect2472" is_visible="true" lpeversion="1" steps="1" threshold="0.005188894" smooth_angles="0" helper_size="0" simplify_individual_paths="false" simplify_just_coalesce="false" step="1"/>     <inkscape:path-effect effect="powerstroke" id="path-effect2467" is_visible="true" lpeversion="1" offset_points="0.93963422,0.32886679" sort_points="true" interpolator_type="CentripetalCatmullRom" interpolator_beta="0.75" start_linecap_type="round" linejoin_type="spiro" miter_limit="4" scale_width="1" end_linecap_type="round"/>     <inkscape:path-effect effect="simplify" id="path-effect2465" is_visible="true" lpeversion="1" steps="1" threshold="0.005188894" smooth_angles="0" helper_size="0" simplify_individual_paths="false" simplify_just_coalesce="false" step="1"/>     <inkscape:path-effect effect="spiro" id="path-effect2462" is_visible="true" lpeversion="1"/>     <inkscape:path-effect effect="spiro" id="path-effect2449" is_visible="true" lpeversion="1"/>     <inkscape:path-effect effect="spiro" id="path-effect2445" is_visible="true" lpeversion="1"/>     <inkscape:path-effect effect="spiro" id="path-effect2440" is_visible="true" lpeversion="1"/>     <inkscape:path-effect effect="spiro" id="path-effect2421" is_visible="true" lpeversion="1"/>     <inkscape:path-effect effect="spiro" id="path-effect2402" is_visible="true" lpeversion="1"/>     <inkscape:path-effect effect="spiro" id="path-effect2375" is_visible="true" lpeversion="1"/>     <inkscape:path-effect effect="spiro" id="path-effect2356" is_visible="true" lpeversion="1"/>     <inkscape:path-effect effect="spiro" id="path-effect2352" is_visible="true" lpeversion="1"/>     <inkscape:path-effect effect="spiro" id="path-effect2333" is_visible="true" lpeversion="1"/>     <inkscape:path-effect effect="spiro" id="path-effect2314" is_visible="true" lpeversion="1"/>     <inkscape:path-effect effect="spiro" id="path-effect2308" is_visible="true" lpeversion="1"/>     <inkscape:path-effect effect="spiro" id="path-effect2289" is_visible="true" lpeversion="1"/>     <inkscape:path-effect effect="spiro" id="path-effect2219" is_visible="true" lpeversion="1"/>     <inkscape:path-effect effect="spiro" id="path-effect2199" is_visible="true" lpeversion="1"/>     <inkscape:path-effect effect="spiro" id="path-effect2191" is_visible="true" lpeversion="1"/>     <inkscape:path-effect effect="spiro" id="path-effect2187" is_visible="true" lpeversion="1"/>     <inkscape:path-effect effect="spiro" id="path-effect2167" is_visible="true" lpeversion="1"/>   </defs>   <sodipodi:namedview id="base" pagecolor="#ffffff" bordercolor="#666666" borderopacity="1.0" inkscape:pageopacity="0.0" inkscape:pageshadow="2" inkscape:zoom="0.70710678" inkscape:cx="162.45305" inkscape:cy="553.88355" inkscape:document-units="mm" inkscape:current-layer="svg1467" inkscape:document-rotation="0" showgrid="false" inkscape:window-width="2560" inkscape:window-height="1377" inkscape:window-x="-8" inkscape:window-y="-8" inkscape:window-maximized="1"/>   <metadata id="metadata1464">     <rdf:rdf>       <cc:work rdf:about="">         <dc:format>image/svg+xml</dc:format>         <dc:type rdf:resource="http://purl.org/dc/dcmitype/StillImage"/>         <dc:title/>       </cc:work>     </rdf:rdf>   </metadata>   <g inkscape:label="Layer 1" inkscape:groupmode="layer" id="layer1"/>   <path id="path2656" style="color:#000000;font-style:normal;font-variant:normal;font-weight:normal;font-stretch:normal;font-size:medium;line-height:normal;font-family:sans-serif;font-variant-ligatures:normal;font-variant-position:normal;font-variant-caps:normal;font-variant-numeric:normal;font-variant-alternates:normal;font-variant-east-asian:normal;font-feature-settings:normal;font-variation-settings:normal;text-indent:0;text-align:start;text-decoration:none;text-decoration-line:none;text-decoration-style:solid;text-decoration-color:#000000;letter-spacing:normal;word-spacing:normal;text-transform:none;writing-mode:lr-tb;direction:ltr;text-orientation:mixed;dominant-baseline:auto;baseline-shift:baseline;text-anchor:start;white-space:normal;shape-padding:0;shape-margin:0;inline-size:0;clip-rule:nonzero;display:inline;overflow:visible;visibility:visible;opacity:1;isolation:auto;mix-blend-mode:normal;color-interpolation:sRGB;color-interpolation-filters:linearRGB;solid-color:#000000;solid-opacity:1;vector-effect:none;fill:#000000;fill-opacity:1;fill-rule:nonzero;stroke:none;stroke-width:0.552967;stroke-linecap:round;stroke-linejoin:miter;stroke-miterlimit:4;stroke-dasharray:none;stroke-dashoffset:0;stroke-opacity:1;color-rendering:auto;image-rendering:auto;shape-rendering:auto;text-rendering:auto;enable-background:accumulate;stop-color:#000000;stop-opacity:1" d="m 49.614058,226.19128 c -0.6881,-0.0306 -1.38208,0.1232 -1.99228,0.4531 -0.008,0.004 -0.016,0.006 -0.0238,0.01 -0.004,0.002 -0.006,0.004 -0.01,0.006 -0.028,0.016 -0.0532,0.0354 -0.0744,0.0592 l -0.001,0.001 c -3.6e-4,3.4e-4 -5.4e-4,5.4e-4 -10e-4,10e-4 -0.0488,0.0566 -0.0726,0.1306 -0.0662,0.20528 -2e-5,0.002 -2e-5,0.004 0,0.006 0.002,0.012 0.004,0.0228 0.006,0.0344 0.002,0.008 0.004,0.018 0.008,0.0258 0.008,0.0242 0.02,0.0474 0.0342,0.0684 0.002,0.002 0.002,0.004 0.004,0.006 0.018,0.0252 0.0406,0.0474 0.0662,0.0654 3.4e-4,3.6e-4 5.4e-4,5.4e-4 10e-4,0.001 l 0.001,0.001 c 0.053,0.0362 0.117,0.0528 0.1808,0.0468 h 10e-4 c 0.01,-0.001 0.0208,-0.002 0.031,-0.006 0.002,-3.2e-4 0.004,-5.2e-4 0.006,-0.001 0.72362,-0.1696 1.52538,-0.0324 2.15144,0.36912 0.62602,0.40164 1.0845,1.07188 1.23484,1.80204 0.0996,0.48376 0.0728,1.00194 -0.0278,1.50862 -0.1008,0.50744 -0.2744,1.00822 -0.45674,1.51692 -0.7885,2.19954 -1.69362,4.38272 -2.30436,6.67312 -0.61104,2.29152 -0.92172,4.72232 -0.4805,7.08582 0.54878,2.93962 2.28702,5.62944 4.73788,7.33154 2.02594,1.40698 4.50868,2.11552 6.9668,2.026 0.0256,1.52946 0.078,3.0583 0.156,4.58598 -2.95562,0.1536 -5.89364,0.6519 -8.73176,1.49408 2.88662,0.94358 5.8982,1.49702 8.93016,1.6517 0.1178,1.5756 0.25628,3.15038 0.42986,4.72076 -3.16904,0.111 -6.32332,0.62286 -9.36416,1.5252 3.15022,1.02974 6.44904,1.59238 9.76098,1.68072 0.24516,1.8147 0.5246,3.6249 0.84424,5.42788 0.35076,-1.8011 0.65684,-3.6106 0.92588,-5.4258 3.32886,-0.084 6.64535,-0.64782 9.81157,-1.6828 -3.04446,-0.90342 -6.20263,-1.41708 -9.37551,-1.52728 0.1904,-1.57056 0.34204,-3.14496 0.47122,-4.7218 3.02454,-0.1564 6.02877,-0.70728 8.90843,-1.64858 -2.82518,-0.83836 -5.74841,-1.3348 -8.69041,-1.49098 0.0856,-1.52654 0.1414,-3.0542 0.1696,-4.58286 2.39032,0.0442 4.79009,-0.66404 6.76013,-2.03222 2.45088,-1.7021 4.18912,-4.39192 4.73788,-7.33154 0.44124,-2.3635 0.1306,-4.7943 -0.4805,-7.08582 -0.61076,-2.2904 -1.51172,-4.47358 -2.30022,-6.67312 -0.1824,-0.5087 -0.35694,-1.00948 -0.45778,-1.51692 -0.1006,-0.50668 -0.1306,-1.02486 -0.031,-1.50862 0.1504,-0.73016 0.6119,-1.4004 1.23796,-1.80204 0.62044,-0.39808 1.41428,-0.5348 2.13282,-0.37222 0.1262,0.039 0.26208,-0.018 0.32446,-0.1338 0.0664,-0.1224 0.0318,-0.27502 -0.0806,-0.35668 -0.008,-0.006 -0.018,-0.012 -0.027,-0.018 l -0.002,-0.002 c -0.008,-0.004 -0.018,-0.008 -0.0268,-0.012 -0.984,-0.53448 -2.1933,-0.60742 -3.23438,-0.1948 -1.05026,0.41612 -1.88494,1.30934 -2.23408,2.38682 -0.21292,0.6571 -0.24524,1.34854 -0.1798,2.01354 0.0654,0.6642 0.22638,1.30578 0.39062,1.92854 0.54666,2.07318 1.2016,4.10244 1.55414,6.1796 0.35228,2.07566 0.39064,4.23262 -0.2728,6.19206 -0.60282,1.7805 -1.7925,3.36258 -3.3315,4.43562 -1.31201,0.9148 -2.88069,1.4562 -4.47541,1.56356 -0.1234,-7.1148 -0.86468,-14.21864 -2.22478,-21.20248 -1.24138,7.00224 -1.91662,14.10368 -2.02846,21.21492 -1.66588,-0.0722 -3.31414,-0.6215 -4.68312,-1.576 -1.53898,-1.07304 -2.7245,-2.65512 -3.32736,-4.43562 -0.66342,-1.95944 -0.6292,-4.1164 -0.27694,-6.19206 0.35254,-2.07716 1.0116,-4.10642 1.5583,-6.1796 0.1642,-0.62276 0.3211,-1.26434 0.38646,-1.92854 0.0654,-0.665 0.0372,-1.35644 -0.1758,-2.01354 -0.34916,-1.07748 -1.18798,-1.9707 -2.23822,-2.38682 -0.39386,-0.1562 -0.8116,-0.24264 -1.23174,-0.2613 z" sodipodi:nodetypes="ccccssccccsccsscscscssssssscccccccccccccccsssssssccccccssssssscccssssssssc"/>   <g id="g2831" style="opacity:1"/>   <g id="g2845" style="opacity:1;mix-blend-mode:normal;fill:#000000;fill-opacity:1;fill-rule:evenodd;stroke:none;stroke-opacity:1" transform="matrix(1.0496005,0,0,1.2242251,-8.0436569,-34.298425)"/> </svg>