<svg xmlns="http://www.w3.org/2000/svg" viewBox="0 0 80 80" id="flash"><path d="M68.435 5.953A1.999 1.999 0 0 0 66.73 5h-22a2 2 0 0 0-1.83 1.194L25.614 45.48a2 2 0 0 0 1.83 2.806h14.46l-8.488 24.048a1.999 1.999 0 0 0 3.374 2.002l37.699-42A2 2 0 0 0 73.002 29H57.828L68.515 7.903a2 2 0 0 0-.08-1.95zM52.789 30.097A2 2 0 0 0 54.573 33h13.946l-27.98 31.172 6.077-17.22a2 2 0 0 0-1.885-2.666H30.51L46.036 9h17.44L52.789 30.097zM10.526 60c.14 0 .284-.015.427-.046l11.47-2.495a2 2 0 1 0-.85-3.908l-11.47 2.495A2 2 0 0 0 10.526 60zM4.998 45a2 2 0 0 0 2 2H18.47a2 2 0 0 0 0-4H6.999a2 2 0 0 0-2 2zm17.426-12.459-11.47-2.495a2 2 0 0 0-.851 3.908l11.47 2.495a2 2 0 0 0 .85-3.908z"></path></svg>