<svg xmlns="http://www.w3.org/2000/svg" viewBox="0 0 24 24" id="dice"><g id="Duotone"><path fill="#fff" d="M6.3 21.5l-5.8-10 5.8-10h11.5l5.7 10-5.7 10z"></path><path fill="#eeeeee" d="M6.3 21.5l11.5-20 5.7 10-5.7 10z"></path><path fill="none" stroke="#000000" stroke-linecap="round" stroke-linejoin="round" stroke-miterlimit="10" d="M6.3 21.5l-5.8-10 5.8-10h11.5l5.7 10-5.7 10z"></path><path fill="none" stroke="#000000" stroke-linecap="round" stroke-linejoin="round" stroke-miterlimit="10" d="M23.5 11.5L6.3 1.5 5.5 13l.8 8.5 9.2-2.5z"></path><path fill="none" stroke="#000000" stroke-linecap="round" stroke-linejoin="round" stroke-miterlimit="10" d="M17.8 21.5L15.5 19l-10-6-5-1.5M5.5 13l10.1-6.1 2.2-5.4M15.5 19l.1-12.1"></path></g><path id="Frames-24px" fill="none" d="M0 0h24v24H0z"></path></svg>