<svg xmlns="http://www.w3.org/2000/svg" data-name="Layer 1" viewBox="0 0 32 32" id="hourglass"><path fill="#f3f3f3" d="M23.54167,29.5H8.45833V25.68383a10,10,0,0,1,3.59811-7.68218l.55819-.46516a2,2,0,0,0,0-3.07287l-.55819-.46516A10,10,0,0,1,8.45833,6.31628V2.5H23.54167V6.31628a10,10,0,0,1-3.59811,7.68218l-.55819.46516a2,2,0,0,0,0,3.07287l.55819.46516a10,10,0,0,1,3.59811,7.68218Z" class="color4ebaea svgShape"></path><path fill="#000000" d="M13.05646,18.00165l.55817-.46515a2,2,0,0,0,0-3.07288l-.55817-.46515A10.00008,10.00008,0,0,1,9.45831,6.31628V2.5h-1V6.31628a10.00008,10.00008,0,0,0,3.59814,7.68219l.55817.46515a2,2,0,0,1,0,3.07288l-.55817.46515a10,10,0,0,0-3.59814,7.68219V29.5h1V25.68384A10,10,0,0,1,13.05646,18.00165Z" class="color2e99d4 svgShape"></path><rect width="19" height="2" x="6.5" y=".5" fill="#8c8c8c" rx="1" ry="1" class="colorb28966 svgShape"></rect><path fill="#696969" d="M8.5,1.5a1,1,0,0,1,1-1h-2a1,1,0,0,0,0,2h2A1,1,0,0,1,8.5,1.5Z" class="color8b6847 svgShape"></path><rect width="19" height="2" x="6.5" y="29.5" fill="#8c8c8c" rx="1" ry="1" class="colorb28966 svgShape"></rect><path fill="#c7c7c7" d="M9.22183,29.5l5.30655-3.74078a2.55416,2.55416,0,0,1,2.94325,0L22.77817,29.5Z" class="colorfdc475 svgShape"></path><path fill="#909090" d="M16.5,25.34839a2.54774,2.54774,0,0,0-1.97162.41083L9.2218,29.5h1l5.30658-3.74078A2.54049,2.54049,0,0,1,16.5,25.34839Z" class="colorfaa827 svgShape"></path><circle cx="16.5" cy="21.5" r=".5" fill="#c7c7c7" class="colorfdc475 svgShape"></circle><circle cx="15.5" cy="23.5" r=".5" fill="#c7c7c7" class="colorfdc475 svgShape"></circle><path fill="#c7c7c7" d="M8.46,6.5H23.54a9.9748,9.9748,0,0,1-3.06,7.01L16,16.5l-4.48-2.99A9.9748,9.9748,0,0,1,8.46,6.5Z" class="colorfdc475 svgShape"></path><path fill="#909090" d="M12.52,13.51A9.97473,9.97473,0,0,1,9.46,6.5h-1a9.97473,9.97473,0,0,0,3.06,7.01L16,16.5l.5-.33368Z" class="colorfaa827 svgShape"></path><path fill="#c7c7c7" d="M16,19a.49971.49971,0,0,1-.5-.5v-3a.5.5,0,0,1,1,0v3A.49971.49971,0,0,1,16,19Z" class="colorfdc475 svgShape"></path><path fill="#696969" d="M8.5,30.5a1,1,0,0,1,1-1h-2a1,1,0,0,0,0,2h2A1,1,0,0,1,8.5,30.5Z" class="color8b6847 svgShape"></path></svg>