<svg xmlns="http://www.w3.org/2000/svg" enable-background="new 0 0 64 64" viewBox="0 0 64 64" id="Shield"><path d="M57.43,7.26C57.06,7,56.58,6.92,56.15,7.06C44.63,10.76,35.52,2.91,33,0.41c-0.56-0.55-1.46-0.55-2.02,0
		c-2.52,2.5-11.63,10.35-23.13,6.64C7.42,6.92,6.94,7,6.57,7.26C6.2,7.53,5.98,7.96,5.98,8.42v28.67c0,3.41,0.89,6.68,2.57,9.46
		c3.66,6.07,10.64,14.01,23.07,17.39c0.12,0.03,0.25,0.05,0.38,0.05c0.13,0,0.25-0.02,0.38-0.05c13.11-3.56,20.08-12.43,23.07-17.39
		c1.68-2.8,2.57-6.07,2.57-9.46V8.42C58.02,7.96,57.8,7.53,57.43,7.26z M55.15,37.09c0,2.87-0.75,5.63-2.16,7.99
		c-2.74,4.55-9.09,12.63-20.99,16c-11.28-3.19-17.64-10.44-20.99-16c-1.41-2.34-2.15-5.1-2.15-7.98V10.31
		c10.92,2.56,19.57-3.69,23.15-6.91c3.58,3.21,12.24,9.47,23.16,6.91V37.09z" fill="#000000" class="color000000 svgShape"></path><path d="M32.85,7.75c-0.51-0.38-1.2-0.38-1.71,0c-3.55,2.63-9.26,5.77-16.33,5.77c-0.35,0-0.7-0.01-1.06-0.02
		c-0.4-0.01-0.77,0.12-1.06,0.4c-0.28,0.27-0.44,0.64-0.44,1.04v21.24c0,2.33,0.59,4.54,1.72,6.41c2.83,4.69,8.18,10.91,17.59,13.9
		c0.14,0.04,0.29,0.07,0.43,0.07s0.29-0.02,0.43-0.07c9.43-3,14.77-9.21,17.59-13.9c1.13-1.88,1.73-4.09,1.73-6.41V14.93
		c0-0.39-0.16-0.76-0.44-1.04c-0.28-0.27-0.68-0.41-1.05-0.4c-0.36,0.02-0.71,0.02-1.06,0.02C42.11,13.52,36.39,10.38,32.85,7.75z
		 M48.88,36.16c0,1.79-0.46,3.5-1.32,4.93C45.04,45.29,40.3,50.82,32,53.6c-8.29-2.77-13.04-8.31-15.57-12.51
		c-0.85-1.42-1.3-3.12-1.3-4.93V16.38c7.16-0.08,13-3.02,16.87-5.72c3.87,2.71,9.71,5.64,16.88,5.72V36.16z" fill="#000000" class="color000000 svgShape"></path></svg>